<svg width="100" height="100" viewBox="0 0 100 100" fill="none" xmlns="http://www.w3.org/2000/svg">
<path d="M37.6667 57.8807L35.9848 56.031C35.4352 56.5307 35.1363 57.249 35.1691 57.9911L37.6667 57.8807ZM62 35.7557L63.6818 37.6054C64.612 36.7597 64.7694 35.3547 64.0495 34.3241C63.3296 33.2935 61.9564 32.9577 60.8422 33.54L62 35.7557ZM38.3333 72.9659L36.1257 74.1392C36.4637 74.7751 37.0595 75.2344 37.7604 75.3994C38.4614 75.5644 39.1995 75.4191 39.7857 75.0008L38.3333 72.9659ZM48.6667 65.5909L50.1082 63.5483L50.1016 63.5437L48.6667 65.5909ZM78.8811 25.3525L76.434 24.841L78.8811 25.3525ZM11.5613 45.8507L10.6779 43.512L11.5613 45.8507ZM12.4446 48.1895L75.7679 24.2709L74.0011 19.5935L10.6779 43.512L12.4446 48.1895ZM76.434 24.841L66.4657 72.5273L71.3599 73.5504L81.3282 25.8641L76.434 24.841ZM39.3485 59.7304L63.6818 37.6054L60.3182 33.906L35.9848 56.031L39.3485 59.7304ZM60.8422 33.54L26.8422 51.307L29.1578 55.7384L63.1578 37.9714L60.8422 33.54ZM28.8319 51.1652L12.4138 45.3717L10.7499 50.0868L27.1681 55.8803L28.8319 51.1652ZM25.7924 54.696L36.1257 74.1392L40.5409 71.7927L30.2076 52.3495L25.7924 54.696ZM40.8309 72.8555L40.1642 57.7703L35.1691 57.9911L35.8358 73.0763L40.8309 72.8555ZM50.1016 63.5437L39.1016 55.8335L36.2317 59.9279L47.2317 67.6381L50.1016 63.5437ZM39.7857 75.0008L50.119 67.6258L47.2143 63.556L36.881 70.931L39.7857 75.0008ZM64.1325 73.4459L50.1082 63.5484L47.2252 67.6335L61.2495 77.531L64.1325 73.4459ZM66.4657 72.5273C66.2449 73.5837 65.0142 74.0682 64.1325 73.4459L61.2495 77.531C65.0703 80.2275 70.403 78.128 71.3599 73.5504L66.4657 72.5273ZM75.7679 24.2709C76.1371 24.1315 76.5148 24.4547 76.434 24.841L81.3282 25.8641C82.2165 21.6147 78.0623 18.0595 74.0011 19.5935L75.7679 24.2709ZM10.6779 43.512C7.62472 44.6653 7.6722 49.0007 10.7499 50.0868L12.4138 45.3717C13.7328 45.8372 13.7531 47.6952 12.4446 48.1895L10.6779 43.512Z" fill="#B99B5F"/>
<circle cx="50" cy="50" r="48" stroke="#B99B5F" stroke-width="4"/>
</svg>
